/* XPM */
static char *ReferenceFinder[] = {
/* width height ncolors chars_per_pixel */
"32 32 98 2",
/* colors */
"AA c #FFFFFFFFFFFF",
"BA c #EFEFFFFFEFEF",
"CA c #EFEFF7F7FFFF",
"DA c #EFEFEFEFFFFF",
"EA c #EFEFEFEFEFEF",
"FA c #E7E7DEDEDEDE",
"GA c #DEDEEFEFEFEF",
"HA c #DEDEDEDEEFEF",
"IA c #DEDEDEDEDEDE",
"JA c #DEDEDEDECECE",
"KA c #DEDECECED6D6",
"LA c #DEDEC6C6CECE",
"MA c #DEDEBDBDBDBD",
"NA c #D6D6E7E7DEDE",
"OA c #D6D6BDBDC6C6",
"PA c #D6D6ADADB5B5",
"AB c #CECEDEDED6D6",
"BB c #CECECECEB5B5",
"CB c #CECEADADADAD",
"DB c #CECEA5A59C9C",
"EB c #C6C6C6C6D6D6",
"FB c #C6C6C6C6CECE",
"GB c #C6C6BDBDC6C6",
"HB c #C6C69C9C9C9C",
"IB c #BDBDE7E7BDBD",
"JB c #BDBDDEDECECE",
"KB c #BDBDB5B5B5B5",
"LB c #BDBDADADADAD",
"MB c #BDBD9C9C9494",
"NB c #BDBD94948C8C",
"OB c #BDBD8C8C8C8C",
"PB c #B5B5D6D6BDBD",
"AC c #ADADD6D6BDBD",
"BC c #ADADD6D6ADAD",
"CC c #ADADCECEB5B5",
"DC c #ADAD94948C8C",
"EC c #ADAD8C8C8C8C",
"FC c #ADAD8C8C7B7B",
"GC c #ADAD7B7B7B7B",
"HC c #A5A5CECEADAD",
"IC c #A5A56B6B6B6B",
"JC c #9C9CD6D69C9C",
"KC c #9C9CCECEA5A5",
"LC c #9C9CCECE9C9C",
"MC c #9C9C7B7B7373",
"NC c #9C9C73736B6B",
"OC c #949494949C9C",
"PC c #949484847B7B",
"AD c #94946B6B7373",
"BD c #94946B6B6B6B",
"CD c #949452525252",
"DD c #8C8CC6C69494",
"ED c #8C8CC6C68C8C",
"FD c #8C8C73736B6B",
"GD c #8C8C6B6B6B6B",
"HD c #8C8C6B6B5A5A",
"ID c #8C8C5A5A5A5A",
"JD c #848473738484",
"KD c #7B7BBDBD8484",
"LD c #7B7B7B7B8484",
"MD c #7B7B73737B7B",
"ND c #7B7B6B6B6363",
"OD c #7B7B63635A5A",
"PD c #7B7B63634A4A",
"AE c #7B7B5A5A5A5A",
"BE c #7B7B5A5A4A4A",
"CE c #7B7B4A4A4A4A",
"DE c #7373B5B57373",
"EE c #73736B6B7373",
"FE c #73735A5A6363",
"GE c #6B6B63635A5A",
"HE c #6B6B5A5A5A5A",
"IE c #6B6B52524A4A",
"JE c #6B6B4A4A5252",
"KE c #6B6B4A4A4A4A",
"LE c #6B6B42423939",
"ME c #636373736B6B",
"NE c #636331313131",
"OE c #5A5A5A5A6363",
"PE c #5A5A52525252",
"AF c #5A5A4A4A4A4A",
"BF c #5A5A39393939",
"CF c #525263635A5A",
"DF c #525239394242",
"EF c #4A4A63634A4A",
"FF c #4A4A52524242",
"GF c #4A4A4A4A4A4A",
"HF c #4A4A39394242",
"IF c #4A4A39393939",
"JF c #4A4A29293131",
"KF c #4A4A29292929",
"LF c #393929292929",
"MF c #31315A5A3131",
"NF c #292952522929",
"OF c #292929292929",
"PF c #292918181818",
"AG c #212121211818",
"BG c #181818181818",
/* pixels */
"AAGFMDMDMDMDMDMDMDMDCFMFEFMFFFMDMDMDMDMDMDGEMDMDMDMDMDMDMDMDMDGF",
"AAMDDAAACAAADAAACAAANALCPBDAGAEAHADAAADAAANAAACAAADAAACAAACAAALD",
"AAMDDADADADACADADADADAKCABCCDACAHADADACAEAFADADADACADADADADADALD",
"AAEEAADADAAADADAAADADACCAAGADDDAIACADADAIADADAAADADAAAKDHCBCCCFF",
"AAMDDADADADAAADADADADAGAABDADALCFBCAAADAJADADADADADADACCBABANAMF",
"AAMDDADAAADADADADAAADAAADADADAAAKCHCGADAJADADADACADABBKCLCBAJCJD",
"AAMDCADADADADADADADADADADAAADADAHADACCHCLCHCHCHCHCKCEBHABCDDCALD",
"AANDDAAADADAAADAAADADADAAADADADAHADAAACALADAAADAHAHACACACCGAAALD",
"AAMDDADADADADADADAAADADADADAAADAHADADAFACADAEBEADADADADADAAADALD",
"AAMDDADAAADADAAADADADAAADADADADAKAAADABBIAHAAADADADADAAADADADALD",
"AAMDCADADAAADADADADADADADAAADADAHADAHAFBDADADADAAADADADAAADADALD",
"AANDDAAADADADADAAADADAAADADADADAFBHADAJADADAAADADADAAADADADAAAJD",
"AAMDDADADADADADADADADADAAADAKAHAHADADADBCBDADADADADADADADADADALD",
"AAMDDADAAADAAADADAAADADAHAHACADAIADAEACBEADADADAAADADAAACADAAALD",
"AAMDCADADADADADADADAIAHADADADADAHADAKACBEADAAADADADADADADAAADALD",
"AAEEAADADAAADADAHAHADAEALAMAPAIAHAEALAGBPADADADADADADAAADADACALD",
"AAMDDADADADAFBLAMAMAMBMBMBMBHBOBABAAEADADAAADADAAADADADADAAADALD",
"AAFDDADALACBHBCBDBMBOBMCGCCDBDECLBDABBDAAADADADADADAAADADADAAALD",
"AAEEHAIAMBHBHBNBECBDIDCENEBFCEBDOBGBDADADADAAADADADADADAAADADALD",
"AANDDALBHEPCECNCIDBFLFKFLFPFKFIDGCNBLADADAAADADADADAAADADADADALD",
"AAMDCAECIFBGAGPEODODLFPFPFBGPFNEIDFCMBFADADADAAADADADADAAADADAJD",
"AAEEIANCFDIEOFPFBGBGLEHEAFLFPFPFBFCDGCOBOADADADADAAADADADADAAALD",
"AAMDMBECPCFCMCLFPFBGBGBGPFIFIFLFBFICGCFCECMBGADADADAAADADADADALD",
"AANDMCPCNBDCMCGDAFPFPFPFBGPFBDHBMBOBOBECGCMDBBHCDADADADADADAAALD",
"AAGFFDFCPCNBDCOBFCAEIFBFIEDCHBHBOBECBDGDFEJELDHALCDADADAAADADALD",
"AAODGDNCFCECNBMBMBDBDBDBHBMBOBECGCGDAEJEHEOFAGGFOCEDGADADADAAALD",
"JAKEBEFDNCPCNBOBMBHBMBMBOBGCMCGDAEJEJEJFJECAHAJAKBGBHCABDAJBCCLD",
"FDBEIEODNCFCFCFCMBMBECMCGDGDAEJEDFHFJFJFFECADADADADAAAJBACHCKCLD",
"ODBEPDGDFDGCNCGDGCMCADGDAEKEDFJFJFOFLDHADADADAAADADADAEAEDBAIBME",
"HDPDBEHDHDHDAEGDAEAEAEDFFEGBJFJFHFJFLBDADADADADADAAADADEPBBAAAMF",
"HDODBEAEAEBEAEKEKEDFDFJEEEEEJFHFBGOEEEMDMDMDMDMDMDEEMDMDCFNFMFMF",
"HDHDIEIEIEKEAFAFHFJEKBCAAAAADAGAAAAAAAAAAAAAAAAACAAAAAAAAAAAAAAA"};
