/* XPM */
static char *ICON_FRAME_xpm[] = {
/* width height ncolors chars_per_pixel */
"32 32 45 2",
/* colors */
"AA c #FFFFFFFFFFFF",
"BA c #FFFFBDBDC6C6",
"CA c #FFFFADADB5B5",
"DA c #FFFF94949C9C",
"EA c #F7F7EFEFFFFF",
"FA c #F7F7DEDEEFEF",
"GA c #F7F7CECEDEDE",
"HA c #EFEFFFFFF7F7",
"IA c #EFEFEFEFF7F7",
"JA c #EFEFDEDEEFEF",
"KA c #E7E7D6D6DEDE",
"LA c #E7E7ADADB5B5",
"MA c #E7E7A5A5ADAD",
"NA c #DEDEE7E7E7E7",
"OA c #DEDEDEDEE7E7",
"PA c #DEDECECEDEDE",
"AB c #DEDEB5B5C6C6",
"BB c #DEDE94949C9C",
"CB c #D6D6E7E7F7F7",
"DB c #D6D6A5A5ADAD",
"EB c #CECEDEDEEFEF",
"FB c #CECEDEDED6D6",
"GB c #CECE8C8C9494",
"HB c #C6C6DEDECECE",
"IB c #C6C6CECEDEDE",
"JB c #C6C6C6C6CECE",
"KB c #C6C6BDBDC6C6",
"LB c #C6C69C9CA5A5",
"MB c #C6C67B7B8484",
"NB c #BDBDE7E7C6C6",
"OB c #BDBDDEDECECE",
"PB c #BDBDD6D6BDBD",
"AC c #BDBDBDBDC6C6",
"BC c #BDBDA5A5A5A5",
"CC c #BDBD84848C8C",
"DC c #BDBD7B7B7B7B",
"EC c #B5B5CECEBDBD",
"FC c #B5B5C6C6D6D6",
"GC c #B5B5BDBDBDBD",
"HC c #ADADDEDEADAD",
"IC c #ADADB5B5C6C6",
"JC c #ADAD73737373",
"KC c #A5A5B5B58484",
"LC c #9494BDBD9C9C",
"MC c #8C8CBDBD8C8C",
/* pixels */
"AAEBEBEBEBEBEBEBEBEBEBEBEBEBEBEBEBEBEBEBEBEBEBEBEBEBEBEBEBEBEBAA",
"EBDBOAKAOAKAOAKAOAKAOAKAOAKAOAJBOAKAOAKAOAKAOAKAOAKAOAKAOAOABCCB",
"EBMAIAIAIAHAIAIAHAIAIAHAIAIAIAOAIAHAIAIAHAIAIAHAIAIAIAHAIAIAACCB",
"EBPABAHAIAIAEAIAIAIAIAIAEAHAIAOAEAIAIAIAIAIAEAIAIAHAIAIAEAIAACCB",
"EBOACAIAEAIAEAHAEAEAEAIAIAEAEAOAIAEAEAHAEAIAEAIAEAEAEAIAHAEAACCB",
"EBOAIABAEAIAEAIAEAHAIAEAEAIAIAOAAAIAIAEAIAEAIAEAEAIAIAEAEAIAACCB",
"EBOAEABAIAEAIAEAIAEAIAAAIAEAIAOAIAIAEAIAEAHAEAIAHAEAEAIAIAEAACCB",
"EBOAIAIABAIAHAEAIAEAIAIAEAIAIAOAIAEAIAAAIAEAIAEAIAEAIAEAHAEAACCB",
"EBOAEAIABAIAEAIAEAIAEAIAIAAAIAOAIAIAEAIAEAIAAAIAEAIAAAIAEAIAACCB",
"EBIAIAEAIABAIAEAIAIAAAIAEAIAIAOAEAHAEAIAIAEAIAIAIAEAIAIAIAEAACCB",
"EBOAIAIAEABAIAEAIAEAIAEAIAEAIAOAIAEAIAEAHAEAIAEAHAEAIAEAIAEAACCB",
"EBOAEAEAIAIABAIAAAIAEAIAHAEAIAOAEAIAEAIAEAIAEAIAEAIAEAIAAAIAACCB",
"EBOAIAEAIAIALAEAIAIAEAIAEAIAEAOAIAEAHAEAIAEAHAEAIAEAIAEAIAEAACCB",
"EBOAEAIAEAIAJBKCPAABKBEAIAEAIAOAIAEAIAEAIAEAIAEAIAIAAAIAEAIAACCB",
"EBOAEAIAIAEANBCCHCLBLBAAIAIAEAOAIAAAIAIAEAHAEAIAEAIAIAEAIAAAACCB",
"EBOAIAAAIAIAFBHBBBLBLBIAIAAAIAOAEAIAIAEAIAEAIAEAHAEAIAEAIAIAACCB",
"EBOAIAIAEAOBEAHBCANAIAIAIAIAEAOAIAIAEAHAEAIAEAIAEAIAAAIAEAIAACCB",
"EBOAEAIAEANAEAOBIABAIAEAIAEAIAOAIAEAIAEAIAEAIAEAIAEAIAIAIAEAACCB",
"EBOAEAAAIAIAEAHBIABAIAIAEAIAAAOAIAIAAAIAEAIAAAIAIAEAIAAAIAIAACCB",
"EBOAIAIAEAIAIAFBIAIABAHAEAIAIAOAIAEAIAEAIAEAIAIAEAHAEAIAIAEAACCB",
"EBJAIAIAHAEAFBIAIAIABAIAIAEAIAOAIAEAIAIAAAIAIAEAIAEAIAEAEAHAACOA",
"EBLABAIAEAIAFBIAIAEAIABAIAEAIAOAIAAAIAEAIAIAEAIAEAIAAAIAIAEAACCB",
"EBOAHAEABABAOBIAEAIAEABAIAIAEAOAIAIAEAIAEAIAAAIAIAEAIAEAIAIAACCB",
"EBOAIAIAIACBFBBABAEAIAIABAIAEAOALBPAABEAHAEAIAIAEAIAIAIAAAEAACCB",
"EBOAEAIAEAOBIAIAIAIABALABAEAIAPAMBIAIAIAEAIAEAHAEAIAEAIAIAIAACCB",
"EBOAEAIAIAFBIAEAIAEAIAEAJADABAPADCPAJAEAIAEAIAEAIAEAHAEAIAEAACCB",
"EBOANAIAOBIAEAIAEAIAEAIAEALAEAOAGACAJAIAEAHAEAIAEAIAEAIAEAHAACOA",
"EBOAHCOBNAEAIAAAIAEAIAEAIAEABAOAIAIAIAJACAFAIAEAHAEAIAEAIAEAACCB",
"EBECHAHCIAIAIAIAEAHAEAIAEAIABAOAIAEAIAEAIAIAEACAJAEAIAEAAAIAACCB",
"EBHCHAHAPBCBEAEAIAEAIAEAIAEAJALAIAEAIAEAIAEAIAIAIAJABAGAIAIAACCB",
"LBMCMCLCLCGCKBIBKBIBKBIBKBACIBMBACIBKBIBKBIBKBIBKBKBACIBKBGBJCIC",
"FCICEBOAEBOACBEBCBEBCBOAEBCBOAEBCBEBCBEBCBOAEBOAEBCBOAEBOAEBICEB"};
